<?xml version="1.0" encoding="UTF-8"?>
<!DOCTYPE svg PUBLIC "-//W3C//DTD SVG 1.1//EN" "http://www.w3.org/Graphics/SVG/1.1/DTD/svg11.dtd">
<svg xmlns="http://www.w3.org/2000/svg" version="1.1" width="226px" height="457px" style="shape-rendering:geometricPrecision; text-rendering:geometricPrecision; image-rendering:optimizeQuality; fill-rule:evenodd; clip-rule:evenodd" xmlns:xlink="http://www.w3.org/1999/xlink">
<g><path style="opacity:1" fill="#fcfdfc" d="M -0.5,-0.5 C 37.8333,-0.5 76.1667,-0.5 114.5,-0.5C 115.167,0.166667 115.833,0.833333 116.5,1.5C 115.504,1.41423 114.671,1.74756 114,2.5C 111.225,7.45646 109.892,12.7898 110,18.5C 106.829,23.5101 104.329,28.8435 102.5,34.5C 100.37,28.0131 99.2029,21.3464 99,14.5C 98.5495,11.8941 97.0495,10.5608 94.5,10.5C 93.6149,16.1027 94.7816,21.1027 98,25.5C 100.81,33.4038 101.143,41.4038 99,49.5C 98.0347,51.2603 96.868,51.5937 95.5,50.5C 94.0078,44.9193 92.8412,39.2527 92,33.5C 91.059,31.9386 89.8924,30.6053 88.5,29.5C 87.3401,33.4589 87.1735,37.4589 88,41.5C 90.9462,45.0578 93.1129,49.0578 94.5,53.5C 91.5503,57.6339 89.2169,62.1339 87.5,67C 87.8333,67.5 88.1667,68 88.5,68.5C 89.8871,64.0578 92.0538,60.0578 95,56.5C 96.4526,62.3172 96.9526,68.3172 96.5,74.5C 95.5184,77.9619 95.185,81.6286 95.5,85.5C 96.0082,110.129 90.8415,133.463 80,155.5C 74.7592,164.237 68.5925,172.237 61.5,179.5C 53.994,162.52 57.1607,147.854 71,135.5C 74.2813,131.238 75.1146,126.571 73.5,121.5C 69.3889,126.101 66.8889,131.435 66,137.5C 62.1899,142.809 59.0232,148.476 56.5,154.5C 54.4581,145.257 53.6247,135.923 54,126.5C 55.1711,125.107 56.6711,124.273 58.5,124C 64.7884,124.437 69.955,122.271 74,117.5C 74.5908,116.517 74.2575,115.85 73,115.5C 70.8801,116.459 68.7135,116.626 66.5,116C 71.7751,111.606 75.1084,106.106 76.5,99.5C 76.1667,98.1667 75.8333,96.8333 75.5,95.5C 70.5543,100.058 67.721,105.725 67,112.5C 65.6667,113.833 64.3333,115.167 63,116.5C 63.0556,112 63.5556,107.5 64.5,103C 64.1639,101.97 63.4972,101.47 62.5,101.5C 61.7611,101.631 61.0944,101.464 60.5,101C 61.1712,100.014 61.1712,98.8471 60.5,97.5C 61.6253,95.8712 62.9586,94.3712 64.5,93C 69.1466,90.3659 73.8133,87.6992 78.5,85C 81.1525,81.529 83.1525,77.6957 84.5,73.5C 83.635,72.4173 82.635,72.2506 81.5,73C 77.3538,75.8031 74.8538,79.6365 74,84.5C 70.5048,88.1323 66.6715,90.4656 62.5,91.5C 67.7461,81.3395 73.2461,71.3395 79,61.5C 79.9342,56.6495 79.6009,51.9828 78,47.5C 76.1706,49.1558 74.8372,51.1558 74,53.5C 73.6667,58.5 73.3333,63.5 73,68.5C 70.7503,72.6682 68.2503,76.6682 65.5,80.5C 64.6694,74.1928 64.1694,67.8594 64,61.5C 63.2935,59.9194 62.4601,58.4194 61.5,57C 60.2559,56.5439 59.4226,57.0439 59,58.5C 58.5,60.5 58,62.5 57.5,64.5C 59.3442,69.4732 61.3442,74.3065 63.5,79C 62.8748,82.5438 62.0415,86.0438 61,89.5C 59.8592,93.3831 58.3592,96.3831 56.5,98.5C 55.028,89.4378 54.028,80.4378 53.5,71.5C 53.4784,69.1996 52.4784,68.033 50.5,68C 49.8689,69.9063 49.5356,71.9063 49.5,74C 50.9524,79.4098 51.9524,84.9098 52.5,90.5C 54.9683,99.4555 54.9683,108.455 52.5,117.5C 52.5869,124.592 49.7536,130.259 44,134.5C 44.2957,127.771 44.9623,121.104 46,114.5C 38.4128,122.264 35.4128,131.597 37,142.5C 35.1667,144.833 33.3333,147.167 31.5,149.5C 30.3372,144.198 30.1705,138.864 31,133.5C 33.2571,129.317 35.2571,124.984 37,120.5C 37.8077,118.421 37.641,116.421 36.5,114.5C 34.1956,116.431 32.3622,118.764 31,121.5C 30.1079,127.186 29.1079,132.853 28,138.5C 27.2281,134.702 26.7281,130.869 26.5,127C 27.1827,121.271 28.1827,115.604 29.5,110C 28.7474,99.8308 26.914,99.3308 24,108.5C 23.9483,118.2 24.2816,127.867 25,137.5C 23.4544,132.232 22.1211,126.899 21,121.5C 20.3632,119.697 19.1965,118.364 17.5,117.5C 15.2922,126.095 17.4589,133.428 24,139.5C 26.3877,143.608 28.221,147.941 29.5,152.5C 27.9373,155.957 26.104,159.29 24,162.5C 22.4351,156.917 21.2684,151.251 20.5,145.5C 19.5224,145.977 18.6891,146.643 18,147.5C 17.6647,155.516 18.8314,163.349 21.5,171C 10.7064,200.354 14.2064,227.854 32,253.5C 33.3862,261.8 34.0528,270.133 34,278.5C 28.4994,270.836 23.4994,262.836 19,254.5C 17.8904,252.963 16.3904,252.297 14.5,252.5C 15.0535,260.609 18.8868,266.609 26,270.5C 35.5939,282.875 40.9272,296.875 42,312.5C 39.814,308.802 37.1473,305.468 34,302.5C 30.8709,295.779 28.5376,288.779 27,281.5C 25.7316,279.283 24.2316,277.283 22.5,275.5C 22.1667,276.167 21.8333,276.833 21.5,277.5C 22.1076,280.145 22.6076,282.812 23,285.5C 24.75,289.58 26.9167,293.413 29.5,297C 29.1667,297.5 28.8333,298 28.5,298.5C 17.9277,292.101 12.0944,282.768 11,270.5C 9.80045,266.754 7.63378,263.754 4.5,261.5C 3.69527,267.01 4.5286,272.343 7,277.5C 11.4081,282.652 15.5748,287.985 19.5,293.5C 23.4785,297.156 27.8119,300.322 32.5,303C 28.0422,302.803 23.7088,301.803 19.5,300C 14.5325,296.034 9.86584,291.701 5.5,287C 3.65472,285.872 1.65472,285.372 -0.5,285.5C -0.5,190.167 -0.5,94.8333 -0.5,-0.5 Z"/></g>
<g><path style="opacity:1" fill="#fefefe" d="M 114.5,-0.5 C 151.5,-0.5 188.5,-0.5 225.5,-0.5C 225.5,151.833 225.5,304.167 225.5,456.5C 225.167,456.5 224.833,456.5 224.5,456.5C 221.448,447.948 215.782,441.781 207.5,438C 195.208,431.677 182.208,427.677 168.5,426C 164.667,420.167 160.833,414.333 157,408.5C 153.419,404.248 149.252,400.748 144.5,398C 141.594,396.682 138.594,396.348 135.5,397C 138.939,399.527 141.939,402.527 144.5,406C 148.953,407.814 153.286,409.814 157.5,412C 160.042,416.251 162.709,420.418 165.5,424.5C 164.998,425.521 164.332,425.688 163.5,425C 158.006,418.657 151.339,414.157 143.5,411.5C 142.5,411.833 141.5,412.167 140.5,412.5C 144.668,418.253 150.335,421.42 157.5,422C 158.167,422.667 158.833,423.333 159.5,424C 152.001,424.241 144.667,423.241 137.5,421C 120.936,403.631 115.102,383.131 120,359.5C 124.97,366.983 126.137,374.983 123.5,383.5C 124.359,384.774 125.026,384.608 125.5,383C 126.592,377.874 126.759,372.707 126,367.5C 123.675,363.018 121.508,358.518 119.5,354C 120.18,349.523 120.68,345.023 121,340.5C 124.993,332.773 123.993,325.773 118,319.5C 117.667,319.833 117.333,320.167 117,320.5C 117.278,326.195 118.111,331.862 119.5,337.5C 118.91,342.491 118.41,347.491 118,352.5C 116.386,340.983 112.053,330.65 105,321.5C 103.124,313.246 99.2908,306.079 93.5,300C 92.6683,299.312 92.0016,299.479 91.5,300.5C 93.1531,310.143 97.6531,318.143 105,324.5C 110.751,331.901 114.085,340.234 115,349.5C 113.955,348.627 113.122,347.627 112.5,346.5C 104.562,339.063 96.7285,331.396 89,323.5C 81.6168,313.432 75.9502,302.432 72,290.5C 71.3333,288.5 71.3333,286.5 72,284.5C 75.035,281.13 78.3683,278.13 82,275.5C 86.1637,271.17 87.3304,266.17 85.5,260.5C 80.6275,264.683 78.1275,270.016 78,276.5C 75,278.167 72.6667,280.5 71,283.5C 70.3901,279.764 70.7235,276.097 72,272.5C 76.6696,265.487 78.6696,257.82 78,249.5C 77.7508,248.376 77.2508,247.376 76.5,246.5C 74.8555,248.925 73.6888,251.592 73,254.5C 72.9068,258.841 72.9068,263.174 73,267.5C 71.1253,270.588 69.7919,273.921 69,277.5C 66.0413,264.696 64.3746,251.696 64,238.5C 62.4867,235.473 60.9867,232.473 59.5,229.5C 58.7659,228.292 58.4326,226.959 58.5,225.5C 62.2755,211.385 63.4422,197.052 62,182.5C 69.3982,174.035 76.0649,165.035 82,155.5C 86.9229,145.063 91.2562,134.396 95,123.5C 99.2139,119.618 103.714,116.118 108.5,113C 113.827,109.511 116.327,104.677 116,98.5C 114.457,100.378 112.624,101.878 110.5,103C 107.769,105.626 105.936,108.793 105,112.5C 103.292,114.543 101.292,116.21 99,117.5C 101.604,111.612 104.271,105.612 107,99.5C 107.497,96.854 107.664,94.1873 107.5,91.5C 106.5,91.5 105.5,91.5 104.5,91.5C 101.605,97.4164 100.105,103.75 100,110.5C 97.9376,112.901 96.2709,115.567 95,118.5C 94.8182,108.946 95.9849,99.6122 98.5,90.5C 99.8333,89.8333 100.833,88.8333 101.5,87.5C 103.71,85.3996 106.376,84.3996 109.5,84.5C 114.319,85.6647 119.152,86.6647 124,87.5C 128.472,87.8583 131.972,86.1916 134.5,82.5C 132.833,82.1667 131.167,81.8333 129.5,81.5C 125.7,81.9562 122.034,82.9562 118.5,84.5C 116.701,84.423 115.034,83.923 113.5,83C 120.241,80.5461 126.075,76.7128 131,71.5C 136.251,59.5526 134.584,58.5526 126,68.5C 125.311,71.4081 124.145,74.0748 122.5,76.5C 117.374,79.2442 112.041,81.0775 106.5,82C 112.293,78.7159 115.96,73.8826 117.5,67.5C 117.167,66.5 116.833,65.5 116.5,64.5C 111.662,67.5069 108.828,71.8403 108,77.5C 105.665,80.6653 103.165,83.6653 100.5,86.5C 99.5416,86.9528 98.7083,87.6195 98,88.5C 97.5065,86.8659 97.3398,85.1992 97.5,83.5C 98.6092,73.6171 103.109,65.6171 111,59.5C 113.852,55.4747 114.685,51.1414 113.5,46.5C 112.522,46.9767 111.689,47.6433 111,48.5C 108.963,52.983 107.296,57.6496 106,62.5C 103.294,64.8706 100.961,67.5372 99,70.5C 98.7503,65.4862 99.0836,60.4862 100,55.5C 100.233,53.2199 101.066,51.2199 102.5,49.5C 107.839,45.991 113.505,43.1577 119.5,41C 128.456,41.7546 137.456,42.0879 146.5,42C 150.319,40.9265 153.652,39.0932 156.5,36.5C 155.833,36.1667 155.167,35.8333 154.5,35.5C 151.194,36.1633 147.861,36.6633 144.5,37C 139.065,41.3003 133.398,41.6337 127.5,38C 138.542,35.564 148.042,30.3973 156,22.5C 157.781,17.1537 159.947,11.987 162.5,7C 161.5,6.33333 160.5,6.33333 159.5,7C 153.228,12.0426 149.394,18.5426 148,26.5C 144.08,30.3888 139.58,32.3888 134.5,32.5C 139.382,25.5705 143.048,18.0705 145.5,10C 145.167,9.16667 144.833,8.33333 144.5,7.5C 142.507,9.66555 140.673,11.9989 139,14.5C 138.515,22.6393 135.349,29.4726 129.5,35C 120.58,37.8763 112.08,41.7096 104,46.5C 103.333,45.5 103.333,44.5 104,43.5C 108.618,40.5496 112.952,37.2162 117,33.5C 119.805,29.4245 121.638,24.9245 122.5,20C 122.15,18.7425 121.483,18.4092 120.5,19C 116.289,23.2771 113.789,28.4437 113,34.5C 110,36.8333 107,39.1667 104,41.5C 104.078,35.9178 105.411,30.5845 108,25.5C 110.416,20.9994 113.083,16.6661 116,12.5C 117.647,8.84327 117.813,5.1766 116.5,1.5C 115.833,0.833333 115.167,0.166667 114.5,-0.5 Z"/></g>
<g><path style="opacity:1" fill="#868881" d="M 116.5,1.5 C 117.813,5.1766 117.647,8.84327 116,12.5C 113.083,16.6661 110.416,20.9994 108,25.5C 105.411,30.5845 104.078,35.9178 104,41.5C 107,39.1667 110,36.8333 113,34.5C 113.789,28.4437 116.289,23.2771 120.5,19C 121.483,18.4092 122.15,18.7425 122.5,20C 121.638,24.9245 119.805,29.4245 117,33.5C 112.952,37.2162 108.618,40.5496 104,43.5C 103.333,44.5 103.333,45.5 104,46.5C 112.08,41.7096 120.58,37.8763 129.5,35C 135.349,29.4726 138.515,22.6393 139,14.5C 140.673,11.9989 142.507,9.66555 144.5,7.5C 144.833,8.33333 145.167,9.16667 145.5,10C 143.048,18.0705 139.382,25.5705 134.5,32.5C 139.58,32.3888 144.08,30.3888 148,26.5C 149.394,18.5426 153.228,12.0426 159.5,7C 160.5,6.33333 161.5,6.33333 162.5,7C 159.947,11.987 157.781,17.1537 156,22.5C 148.042,30.3973 138.542,35.564 127.5,38C 133.398,41.6337 139.065,41.3003 144.5,37C 147.861,36.6633 151.194,36.1633 154.5,35.5C 155.167,35.8333 155.833,36.1667 156.5,36.5C 153.652,39.0932 150.319,40.9265 146.5,42C 137.456,42.0879 128.456,41.7546 119.5,41C 113.505,43.1577 107.839,45.991 102.5,49.5C 101.066,51.2199 100.233,53.2199 100,55.5C 99.0836,60.4862 98.7503,65.4862 99,70.5C 100.961,67.5372 103.294,64.8706 106,62.5C 107.296,57.6496 108.963,52.983 111,48.5C 111.689,47.6433 112.522,46.9767 113.5,46.5C 114.685,51.1414 113.852,55.4747 111,59.5C 103.109,65.6171 98.6092,73.6171 97.5,83.5C 96.5233,80.7131 96.19,77.7131 96.5,74.5C 96.9526,68.3172 96.4526,62.3172 95,56.5C 92.0538,60.0578 89.8871,64.0578 88.5,68.5C 88.1667,68 87.8333,67.5 87.5,67C 89.2169,62.1339 91.5503,57.6339 94.5,53.5C 93.1129,49.0578 90.9462,45.0578 88,41.5C 87.1735,37.4589 87.3401,33.4589 88.5,29.5C 89.8924,30.6053 91.059,31.9386 92,33.5C 92.8412,39.2527 94.0078,44.9193 95.5,50.5C 96.868,51.5937 98.0347,51.2603 99,49.5C 101.143,41.4038 100.81,33.4038 98,25.5C 94.7816,21.1027 93.6149,16.1027 94.5,10.5C 97.0495,10.5608 98.5495,11.8941 99,14.5C 99.2029,21.3464 100.37,28.0131 102.5,34.5C 104.329,28.8435 106.829,23.5101 110,18.5C 109.892,12.7898 111.225,7.45646 114,2.5C 114.671,1.74756 115.504,1.41423 116.5,1.5 Z"/></g>
<g><path style="opacity:1" fill="#e6e9e0" d="M 89.5,34.5 C 91.2029,36.8512 91.7029,39.5178 91,42.5C 88.5709,40.1301 88.0709,37.4634 89.5,34.5 Z"/></g>
<g><path style="opacity:1" fill="#c6c7c0" d="M 118.5,23.5 C 119.629,25.6661 119.129,27.6661 117,29.5C 116.591,27.3049 117.091,25.3049 118.5,23.5 Z"/></g>
<g><path style="opacity:1" fill="#c6c7c0" d="M 96.5,16.5 C 97.6491,16.7911 98.3158,17.6244 98.5,19C 98.1667,19.8333 97.8333,20.6667 97.5,21.5C 96.5481,19.9547 96.2148,18.288 96.5,16.5 Z"/></g>
<g><path style="opacity:1" fill="#eff1eb" d="M 156.5,12.5 C 157.009,17.5212 155.175,21.8545 151,25.5C 151.698,20.7611 153.531,16.4278 156.5,12.5 Z"/></g>
<g><path style="opacity:1" fill="#d1d3ca" d="M 142.5,11.5 C 143.629,13.6661 143.129,15.6661 141,17.5C 140.591,15.3049 141.091,13.3049 142.5,11.5 Z"/></g>
<g><path style="opacity:1" fill="#e6e9e1" d="M 114.5,6.5 C 115.659,9.25274 115.159,11.9194 113,14.5C 112.282,11.5929 112.782,8.92625 114.5,6.5 Z"/></g>
<g><path style="opacity:1" fill="#dfe2d9" d="M 145.5,38.5 C 150.694,38.5885 150.694,39.2552 145.5,40.5C 144.833,40.3333 144.167,40.1667 143.5,40C 144.416,39.7216 145.082,39.2216 145.5,38.5 Z"/></g>
<g><path style="opacity:1" fill="#e1e5dc" d="M 111.5,50.5 C 112.621,52.0894 112.454,53.7561 111,55.5C 110.36,53.735 110.527,52.0683 111.5,50.5 Z"/></g>
<g><path style="opacity:1" fill="#7c7e77" d="M 53.5,71.5 C 53.7678,73.099 53.4345,74.4324 52.5,75.5C 52.5343,70.4003 51.8677,70.2336 50.5,75C 50.5247,76.876 51.1914,78.376 52.5,79.5C 53.8333,83.1667 53.8333,86.8333 52.5,90.5C 51.9524,84.9098 50.9524,79.4098 49.5,74C 49.5356,71.9063 49.8689,69.9063 50.5,68C 52.4784,68.033 53.4784,69.1996 53.5,71.5 Z"/></g>
<g><path style="opacity:1" fill="#e2e3db" d="M 52.5,75.5 C 52.5,76.8333 52.5,78.1667 52.5,79.5C 51.1914,78.376 50.5247,76.876 50.5,75C 51.8677,70.2336 52.5343,70.4003 52.5,75.5 Z"/></g>
<g><path style="opacity:1" fill="#868882" d="M 101.5,87.5 C 100.833,87.5 100.5,87.1667 100.5,86.5C 103.165,83.6653 105.665,80.6653 108,77.5C 108.828,71.8403 111.662,67.5069 116.5,64.5C 116.833,65.5 117.167,66.5 117.5,67.5C 115.96,73.8826 112.293,78.7159 106.5,82C 112.041,81.0775 117.374,79.2442 122.5,76.5C 124.145,74.0748 125.311,71.4081 126,68.5C 134.584,58.5526 136.251,59.5526 131,71.5C 126.075,76.7128 120.241,80.5461 113.5,83C 115.034,83.923 116.701,84.423 118.5,84.5C 122.034,82.9562 125.7,81.9562 129.5,81.5C 131.167,81.8333 132.833,82.1667 134.5,82.5C 131.972,86.1916 128.472,87.8583 124,87.5C 119.152,86.6647 114.319,85.6647 109.5,84.5C 106.376,84.3996 103.71,85.3996 101.5,87.5 Z"/></g>
<g><path style="opacity:1" fill="#eaebe3" d="M 114.5,68.5 C 115.573,69.2506 115.74,70.2506 115,71.5C 114.059,73.0614 112.892,74.3947 111.5,75.5C 111.167,75.1667 110.833,74.8333 110.5,74.5C 111.467,72.2099 112.8,70.2099 114.5,68.5 Z"/></g>
<g><path style="opacity:1" fill="#e7eae2" d="M 130.5,65.5 C 131.212,67.7942 130.379,69.7942 128,71.5C 127.972,69.2134 128.805,67.2134 130.5,65.5 Z"/></g>
<g><path style="opacity:1" fill="#eaebe5" d="M 124.5,83.5 C 132.259,83.2411 132.425,84.2411 125,86.5C 124.167,86.3333 123.333,86.1667 122.5,86C 123.381,85.2917 124.047,84.4584 124.5,83.5 Z"/></g>
<g><path style="opacity:1" fill="#a3a59e" d="M 96.5,74.5 C 96.19,77.7131 96.5233,80.7131 97.5,83.5C 97.3398,85.1992 97.5065,86.8659 98,88.5C 98.7083,87.6195 99.5416,86.9528 100.5,86.5C 100.5,87.1667 100.833,87.5 101.5,87.5C 100.833,88.8333 99.8333,89.8333 98.5,90.5C 97.2329,88.9611 96.2329,87.2944 95.5,85.5C 95.185,81.6286 95.5184,77.9619 96.5,74.5 Z"/></g>
<g><path style="opacity:1" fill="#858781" d="M 60.5,97.5 C 58.6477,100.551 57.3143,103.884 56.5,107.5C 55.1667,104.5 55.1667,101.5 56.5,98.5C 58.3592,96.3831 59.8592,93.3831 61,89.5C 62.0415,86.0438 62.8748,82.5438 63.5,79C 61.3442,74.3065 59.3442,69.4732 57.5,64.5C 58,62.5 58.5,60.5 59,58.5C 59.4226,57.0439 60.2559,56.5439 61.5,57C 62.4601,58.4194 63.2935,59.9194 64,61.5C 64.1694,67.8594 64.6694,74.1928 65.5,80.5C 68.2503,76.6682 70.7503,72.6682 73,68.5C 73.3333,63.5 73.6667,58.5 74,53.5C 74.8372,51.1558 76.1706,49.1558 78,47.5C 79.6009,51.9828 79.9342,56.6495 79,61.5C 73.2461,71.3395 67.7461,81.3395 62.5,91.5C 66.6715,90.4656 70.5048,88.1323 74,84.5C 74.8538,79.6365 77.3538,75.8031 81.5,73C 82.635,72.2506 83.635,72.4173 84.5,73.5C 83.1525,77.6957 81.1525,81.529 78.5,85C 73.8133,87.6992 69.1466,90.3659 64.5,93C 62.9586,94.3712 61.6253,95.8712 60.5,97.5 Z"/></g>
<g><path style="opacity:1" fill="#e3e5de" d="M 79.5,76.5 C 80.3764,76.3691 81.0431,76.7025 81.5,77.5C 76.0826,85.5686 75.416,85.2352 79.5,76.5 Z"/></g>
<g><path style="opacity:1" fill="#e3e5dd" d="M 60.5,60.5 C 61.2216,60.9175 61.7216,61.5842 62,62.5C 62.6667,65.1667 62.6667,67.8333 62,70.5C 59.5664,67.4386 59.0664,64.1052 60.5,60.5 Z"/></g>
<g><path style="opacity:1" fill="#eef1ea" d="M 76.5,52.5 C 77.8671,56.1046 77.7004,59.7713 76,63.5C 75.2446,59.7446 75.4113,56.0779 76.5,52.5 Z"/></g>
<g><path style="opacity:1" fill="#ebede7" d="M 60.5,97.5 C 61.1712,98.8471 61.1712,100.014 60.5,101C 61.0944,101.464 61.7611,101.631 62.5,101.5C 61.1639,103.01 59.9973,104.677 59,106.5C 58.7273,111.229 58.0607,115.896 57,120.5C 54.7565,124.723 53.5898,124.389 53.5,119.5C 54.492,115.593 55.492,111.593 56.5,107.5C 57.3143,103.884 58.6477,100.551 60.5,97.5 Z"/></g>
<g><path style="opacity:1" fill="#9c9e99" d="M 53.5,71.5 C 54.028,80.4378 55.028,89.4378 56.5,98.5C 55.1667,101.5 55.1667,104.5 56.5,107.5C 55.492,111.593 54.492,115.593 53.5,119.5C 53.6716,118.508 53.3382,117.842 52.5,117.5C 54.9683,108.455 54.9683,99.4555 52.5,90.5C 53.8333,86.8333 53.8333,83.1667 52.5,79.5C 52.5,78.1667 52.5,76.8333 52.5,75.5C 53.4345,74.4324 53.7678,73.099 53.5,71.5 Z"/></g>
<g><path style="opacity:1" fill="#fafaf8" d="M 58.5,225.5 C 58.4326,226.959 58.7659,228.292 59.5,229.5C 58.8826,229.611 58.3826,229.944 58,230.5C 56.5209,238.581 58.1876,245.914 63,252.5C 64.4229,265.339 66.4229,278.006 69,290.5C 64.6667,281.833 60.3333,273.167 56,264.5C 53.6457,261.312 50.8124,258.645 47.5,256.5C 47.1667,256.833 46.8333,257.167 46.5,257.5C 47.5771,259.729 48.2437,262.063 48.5,264.5C 47.7109,264.783 47.0442,265.283 46.5,266C 46.9662,267.299 46.9662,268.799 46.5,270.5C 42.9174,265.069 39.0841,259.735 35,254.5C 33.8978,249.816 34.5645,245.483 37,241.5C 41.2998,238.202 45.2998,234.535 49,230.5C 50.7275,227.361 51.8942,224.028 52.5,220.5C 51.9984,219.479 51.3317,219.312 50.5,220C 45.831,223.335 42.9977,227.835 42,233.5C 40.3745,236.128 38.3745,238.461 36,240.5C 35.9124,235.109 36.5791,229.775 38,224.5C 40.6179,218.266 42.9512,211.932 45,205.5C 45.6667,201.5 45.6667,197.5 45,193.5C 44.6924,192.692 44.1924,192.025 43.5,191.5C 42.3049,195.614 40.8049,199.614 39,203.5C 39.1627,212.415 37.8294,221.082 35,229.5C 32.9118,222.326 31.2452,214.993 30,207.5C 28.3373,203.504 26.1706,199.837 23.5,196.5C 22.3525,201.939 22.8525,207.272 25,212.5C 33.4282,223.964 35.7615,236.63 32,250.5C 13.5262,219.758 12.6928,188.425 29.5,156.5C 30.1667,155.167 30.8333,155.167 31.5,156.5C 38.7984,170.958 46.2984,185.291 54,199.5C 58.7228,208.26 59.3895,217.26 56,226.5C 53.5292,233.445 50.0292,239.778 45.5,245.5C 46.0016,246.521 46.6683,246.688 47.5,246C 51.5917,239.312 55.2583,232.479 58.5,225.5 Z"/></g>
<g><path style="opacity:1" fill="#fdfdfc" d="M 46.5,270.5 C 46.9662,268.799 46.9662,267.299 46.5,266C 47.0442,265.283 47.7109,264.783 48.5,264.5C 50.864,268.024 54.0306,270.69 58,272.5C 61.3333,279.167 64.6667,285.833 68,292.5C 74.8492,303.368 81.5159,314.368 88,325.5C 96.0044,332.672 103.838,340.005 111.5,347.5C 113.226,349.228 114.559,351.228 115.5,353.5C 115.823,359.69 115.49,365.69 114.5,371.5C 112.059,357.273 105.059,345.939 93.5,337.5C 93.1667,337.833 92.8333,338.167 92.5,338.5C 94.0795,341.994 95.9128,345.327 98,348.5C 101,350.833 104,353.167 107,355.5C 112.597,370.625 117.597,385.958 122,401.5C 125.053,408.444 129.219,414.611 134.5,420C 118.59,417.624 108.09,408.791 103,393.5C 102.667,384.167 102.333,374.833 102,365.5C 94.5811,350.726 92.5811,351.06 96,366.5C 97.3333,368.5 98.6667,370.5 100,372.5C 100.333,379.167 100.667,385.833 101,392.5C 102.023,396.879 103.856,400.879 106.5,404.5C 94.2045,395.394 85.7045,383.06 81,367.5C 80.3333,363.167 80.3333,358.833 81,354.5C 83.3012,346.986 83.9678,339.319 83,331.5C 81.5894,328.421 80.0894,325.421 78.5,322.5C 76.9989,325.453 76.3322,328.619 76.5,332C 76.6667,334.167 76.8333,336.333 77,338.5C 78.5664,341.866 79.733,345.366 80.5,349C 77.3089,359.256 78.3089,369.089 83.5,378.5C 83.3333,378.833 83.1667,379.167 83,379.5C 81.9054,378.307 81.072,376.973 80.5,375.5C 71.7595,361.787 66.2595,346.787 64,330.5C 63.871,324.086 63.2043,317.753 62,311.5C 59.1532,307.13 56.3199,302.797 53.5,298.5C 52.1268,310.224 54.9602,320.891 62,330.5C 64.2188,347.339 70.0521,362.672 79.5,376.5C 79.5106,378.017 80.1772,379.184 81.5,380C 77.4005,379.3 73.4005,377.967 69.5,376C 64.8874,371.387 60.2208,366.721 55.5,362C 53.0859,360.115 50.4192,359.448 47.5,360C 50.1667,363.667 52.8333,367.333 55.5,371C 64.285,375.443 73.285,379.443 82.5,383C 89.748,390.802 96.5813,398.636 103,406.5C 98.3957,405.41 93.8957,403.91 89.5,402C 84.8333,398 80.1667,394 75.5,390C 73.2902,388.261 70.7902,387.094 68,386.5C 66.7425,386.85 66.4092,387.517 67,388.5C 69.5402,390.705 71.7068,393.205 73.5,396C 83.7027,401.433 94.3694,405.767 105.5,409C 115.22,415.026 125.553,419.693 136.5,423C 140.5,425.667 144.5,428.333 148.5,431C 140.833,431.667 133.167,431.667 125.5,431C 120.736,429.747 116.236,427.914 112,425.5C 110.278,425.611 110.112,426.111 111.5,427C 116.436,430.138 121.769,432.138 127.5,433C 136.5,433.333 145.5,433.667 154.5,434C 162.5,437.333 170.5,440.667 178.5,444C 185.628,452.505 194.628,456.172 205.5,455C 197.006,454.751 189.673,451.751 183.5,446C 185.126,446.195 186.793,446.195 188.5,446C 185.994,444.701 183.327,443.701 180.5,443C 178.316,440.984 176.316,438.817 174.5,436.5C 174.833,436.167 175.167,435.833 175.5,435.5C 177.316,437.441 179.316,438.108 181.5,437.5C 178.779,435.473 175.779,433.973 172.5,433C 170.963,431.89 170.297,430.39 170.5,428.5C 184.333,430.042 197.333,434.209 209.5,441C 215.518,444.843 219.851,450.01 222.5,456.5C 148.167,456.5 73.8333,456.5 -0.5,456.5C -0.5,400.167 -0.5,343.833 -0.5,287.5C 1.55366,291.058 4.22032,294.225 7.5,297C 14.9686,300.11 22.6353,302.776 30.5,305C 37.3914,308.566 42.2247,314.066 45,321.5C 48.8003,331.764 53.1336,341.764 58,351.5C 58.3247,349.447 57.9913,347.447 57,345.5C 44.3326,317.498 36.9993,288.165 35,257.5C 43.5042,267.505 49.6708,278.838 53.5,291.5C 54.6139,290.277 54.7805,288.944 54,287.5C 52.0349,281.572 49.5349,275.906 46.5,270.5 Z"/></g>
<g><path style="opacity:1" fill="#898b85" d="M 59.5,229.5 C 60.9867,232.473 62.4867,235.473 64,238.5C 64.3746,251.696 66.0413,264.696 69,277.5C 69.7919,273.921 71.1253,270.588 73,267.5C 72.9068,263.174 72.9068,258.841 73,254.5C 73.6888,251.592 74.8555,248.925 76.5,246.5C 77.2508,247.376 77.7508,248.376 78,249.5C 78.6696,257.82 76.6696,265.487 72,272.5C 70.7235,276.097 70.3901,279.764 71,283.5C 72.6667,280.5 75,278.167 78,276.5C 78.1275,270.016 80.6275,264.683 85.5,260.5C 87.3304,266.17 86.1637,271.17 82,275.5C 78.3683,278.13 75.035,281.13 72,284.5C 71.3333,286.5 71.3333,288.5 72,290.5C 75.9502,302.432 81.6168,313.432 89,323.5C 96.7285,331.396 104.562,339.063 112.5,346.5C 111.833,346.5 111.5,346.833 111.5,347.5C 103.838,340.005 96.0044,332.672 88,325.5C 81.5159,314.368 74.8492,303.368 68,292.5C 64.6667,285.833 61.3333,279.167 58,272.5C 54.0306,270.69 50.864,268.024 48.5,264.5C 48.2437,262.063 47.5771,259.729 46.5,257.5C 46.8333,257.167 47.1667,256.833 47.5,256.5C 50.8124,258.645 53.6457,261.312 56,264.5C 60.3333,273.167 64.6667,281.833 69,290.5C 66.4229,278.006 64.4229,265.339 63,252.5C 58.1876,245.914 56.5209,238.581 58,230.5C 58.3826,229.944 58.8826,229.611 59.5,229.5 Z"/></g>
<g><path style="opacity:1" fill="#e5e7df" d="M 83.5,265.5 C 84.27,268.383 83.4366,271.05 81,273.5C 80.3333,272.167 80.3333,270.833 81,269.5C 82.0946,268.307 82.928,266.973 83.5,265.5 Z"/></g>
<g><path style="opacity:1" fill="#eaebe5" d="M 49.5,260.5 C 53.0588,262.315 54.7254,264.982 54.5,268.5C 51.8247,266.487 50.158,263.82 49.5,260.5 Z"/></g>
<g><path style="opacity:1" fill="#e0e2da" d="M 75.5,252.5 C 76.8946,254.847 76.7279,257.181 75,259.5C 74.2967,257.071 74.4634,254.738 75.5,252.5 Z"/></g>
<g><path style="opacity:1" fill="#f3f4ee" d="M 59.5,235.5 C 62.9733,239.103 64.14,243.436 63,248.5C 60.4369,244.584 59.2702,240.25 59.5,235.5 Z"/></g>
<g><path style="opacity:1" fill="#878983" d="M 95.5,85.5 C 96.2329,87.2944 97.2329,88.9611 98.5,90.5C 95.9849,99.6122 94.8182,108.946 95,118.5C 96.2709,115.567 97.9376,112.901 100,110.5C 100.105,103.75 101.605,97.4164 104.5,91.5C 105.5,91.5 106.5,91.5 107.5,91.5C 107.664,94.1873 107.497,96.854 107,99.5C 104.271,105.612 101.604,111.612 99,117.5C 101.292,116.21 103.292,114.543 105,112.5C 105.936,108.793 107.769,105.626 110.5,103C 112.624,101.878 114.457,100.378 116,98.5C 116.327,104.677 113.827,109.511 108.5,113C 103.714,116.118 99.2139,119.618 95,123.5C 91.2562,134.396 86.9229,145.063 82,155.5C 76.0649,165.035 69.3982,174.035 62,182.5C 63.4422,197.052 62.2755,211.385 58.5,225.5C 55.2583,232.479 51.5917,239.312 47.5,246C 46.6683,246.688 46.0016,246.521 45.5,245.5C 50.0292,239.778 53.5292,233.445 56,226.5C 59.3895,217.26 58.7228,208.26 54,199.5C 46.2984,185.291 38.7984,170.958 31.5,156.5C 30.8333,155.167 30.1667,155.167 29.5,156.5C 12.6928,188.425 13.5262,219.758 32,250.5C 35.7615,236.63 33.4282,223.964 25,212.5C 22.8525,207.272 22.3525,201.939 23.5,196.5C 26.1706,199.837 28.3373,203.504 30,207.5C 31.2452,214.993 32.9118,222.326 35,229.5C 37.8294,221.082 39.1627,212.415 39,203.5C 40.8049,199.614 42.3049,195.614 43.5,191.5C 44.1924,192.025 44.6924,192.692 45,193.5C 45.6667,197.5 45.6667,201.5 45,205.5C 42.9512,211.932 40.6179,218.266 38,224.5C 36.5791,229.775 35.9124,235.109 36,240.5C 38.3745,238.461 40.3745,236.128 42,233.5C 42.9977,227.835 45.831,223.335 50.5,220C 51.3317,219.312 51.9984,219.479 52.5,220.5C 51.8942,224.028 50.7275,227.361 49,230.5C 45.2998,234.535 41.2998,238.202 37,241.5C 34.5645,245.483 33.8978,249.816 35,254.5C 39.0841,259.735 42.9174,265.069 46.5,270.5C 49.5349,275.906 52.0349,281.572 54,287.5C 54.7805,288.944 54.6139,290.277 53.5,291.5C 49.6708,278.838 43.5042,267.505 35,257.5C 36.9993,288.165 44.3326,317.498 57,345.5C 57.9913,347.447 58.3247,349.447 58,351.5C 53.1336,341.764 48.8003,331.764 45,321.5C 42.2247,314.066 37.3914,308.566 30.5,305C 22.6353,302.776 14.9686,300.11 7.5,297C 4.22032,294.225 1.55366,291.058 -0.5,287.5C -0.5,286.833 -0.5,286.167 -0.5,285.5C 1.65472,285.372 3.65472,285.872 5.5,287C 9.86584,291.701 14.5325,296.034 19.5,300C 23.7088,301.803 28.0422,302.803 32.5,303C 27.8119,300.322 23.4785,297.156 19.5,293.5C 15.5748,287.985 11.4081,282.652 7,277.5C 4.5286,272.343 3.69527,267.01 4.5,261.5C 7.63378,263.754 9.80045,266.754 11,270.5C 12.0944,282.768 17.9277,292.101 28.5,298.5C 28.8333,298 29.1667,297.5 29.5,297C 26.9167,293.413 24.75,289.58 23,285.5C 22.6076,282.812 22.1076,280.145 21.5,277.5C 21.8333,276.833 22.1667,276.167 22.5,275.5C 24.2316,277.283 25.7316,279.283 27,281.5C 28.5376,288.779 30.8709,295.779 34,302.5C 37.1473,305.468 39.814,308.802 42,312.5C 40.9272,296.875 35.5939,282.875 26,270.5C 18.8868,266.609 15.0535,260.609 14.5,252.5C 16.3904,252.297 17.8904,252.963 19,254.5C 23.4994,262.836 28.4994,270.836 34,278.5C 34.0528,270.133 33.3862,261.8 32,253.5C 14.2064,227.854 10.7064,200.354 21.5,171C 18.8314,163.349 17.6647,155.516 18,147.5C 18.6891,146.643 19.5224,145.977 20.5,145.5C 21.2684,151.251 22.4351,156.917 24,162.5C 26.104,159.29 27.9373,155.957 29.5,152.5C 28.221,147.941 26.3877,143.608 24,139.5C 17.4589,133.428 15.2922,126.095 17.5,117.5C 19.1965,118.364 20.3632,119.697 21,121.5C 22.1211,126.899 23.4544,132.232 25,137.5C 24.2816,127.867 23.9483,118.2 24,108.5C 26.914,99.3308 28.7474,99.8308 29.5,110C 28.1827,115.604 27.1827,121.271 26.5,127C 26.7281,130.869 27.2281,134.702 28,138.5C 29.1079,132.853 30.1079,127.186 31,121.5C 32.3622,118.764 34.1956,116.431 36.5,114.5C 37.641,116.421 37.8077,118.421 37,120.5C 35.2571,124.984 33.2571,129.317 31,133.5C 30.1705,138.864 30.3372,144.198 31.5,149.5C 33.3333,147.167 35.1667,144.833 37,142.5C 35.4128,131.597 38.4128,122.264 46,114.5C 44.9623,121.104 44.2957,127.771 44,134.5C 49.7536,130.259 52.5869,124.592 52.5,117.5C 53.3382,117.842 53.6716,118.508 53.5,119.5C 53.5898,124.389 54.7565,124.723 57,120.5C 58.0607,115.896 58.7273,111.229 59,106.5C 59.9973,104.677 61.1639,103.01 62.5,101.5C 63.4972,101.47 64.1639,101.97 64.5,103C 63.5556,107.5 63.0556,112 63,116.5C 64.3333,115.167 65.6667,113.833 67,112.5C 67.721,105.725 70.5543,100.058 75.5,95.5C 75.8333,96.8333 76.1667,98.1667 76.5,99.5C 75.1084,106.106 71.7751,111.606 66.5,116C 68.7135,116.626 70.8801,116.459 73,115.5C 74.2575,115.85 74.5908,116.517 74,117.5C 69.955,122.271 64.7884,124.437 58.5,124C 56.6711,124.273 55.1711,125.107 54,126.5C 53.6247,135.923 54.4581,145.257 56.5,154.5C 59.0232,148.476 62.1899,142.809 66,137.5C 66.8889,131.435 69.3889,126.101 73.5,121.5C 75.1146,126.571 74.2813,131.238 71,135.5C 57.1607,147.854 53.994,162.52 61.5,179.5C 68.5925,172.237 74.7592,164.237 80,155.5C 90.8415,133.463 96.0082,110.129 95.5,85.5 Z"/></g>
<g><path style="opacity:1" fill="#e9e9e3" d="M 3.5,288.5 C 6.56282,290.051 9.22949,292.218 11.5,295C 6.94608,295.288 4.27941,293.122 3.5,288.5 Z"/></g>
<g><path style="opacity:1" fill="#e0e1dc" d="M 24.5,282.5 C 26.2385,284.119 26.7385,286.119 26,288.5C 24.872,286.655 24.372,284.655 24.5,282.5 Z"/></g>
<g><path style="opacity:1" fill="#ebebe5" d="M 5.5,265.5 C 6.45837,265.953 7.2917,266.619 8,267.5C 9.32279,271.108 9.98946,274.775 10,278.5C 7.44136,274.552 5.94136,270.219 5.5,265.5 Z"/></g>
<g><path style="opacity:1" fill="#d9dcd5" d="M 17.5,257.5 C 20.3203,259.478 21.8203,262.145 22,265.5C 19.6963,263.22 18.1963,260.554 17.5,257.5 Z"/></g>
<g><path style="opacity:1" fill="#dde0d9" d="M 48.5,224.5 C 48.8622,227.483 47.6955,230.15 45,232.5C 45.292,229.57 46.4586,226.903 48.5,224.5 Z"/></g>
<g><path style="opacity:1" fill="#ebede6" d="M 24.5,201.5 C 27.8971,205.526 29.3971,210.192 29,215.5C 26.1889,211.234 24.6889,206.567 24.5,201.5 Z"/></g>
<g><path style="opacity:1" fill="#f0f2ec" d="M 42.5,199.5 C 43.9117,203.889 43.4117,208.222 41,212.5C 40.269,208.016 40.769,203.682 42.5,199.5 Z"/></g>
<g><path style="opacity:1" fill="#dbdfd5" d="M 19.5,148.5 C 20.5106,153.733 21.3439,159.067 22,164.5C 19.8229,159.405 18.9896,154.072 19.5,148.5 Z"/></g>
<g><path style="opacity:1" fill="#f8f8f6" d="M 50.5,129.5 C 52.8152,142.008 54.6485,154.674 56,167.5C 52.2177,160.156 49.2177,152.489 47,144.5C 46.586,144.043 46.086,143.709 45.5,143.5C 44.3414,147.122 44.1747,150.789 45,154.5C 52.443,162.05 57.2763,171.05 59.5,181.5C 58.3038,184.058 56.9704,186.558 55.5,189C 55.6667,189.5 55.8333,190 56,190.5C 57.353,189.315 58.5197,187.981 59.5,186.5C 60.6651,194.813 60.8317,203.147 60,211.5C 54.0399,195.912 46.7066,180.912 38,166.5C 36.1637,162.162 34.3304,157.828 32.5,153.5C 33.4702,150.226 34.9702,147.226 37,144.5C 41.3371,139.331 45.8371,134.331 50.5,129.5 Z"/></g>
<g><path style="opacity:1" fill="#dcdfd8" d="M 45.5,147.5 C 46.1174,147.611 46.6174,147.944 47,148.5C 48.1645,151.481 48.8311,154.481 49,157.5C 46.4157,154.664 45.2491,151.331 45.5,147.5 Z"/></g>
<g><path style="opacity:1" fill="#f1f3ed" d="M 42.5,121.5 C 43.3263,126.89 42.493,132.224 40,137.5C 38.9318,131.825 39.7652,126.492 42.5,121.5 Z"/></g>
<g><path style="opacity:1" fill="#e4e4de" d="M 71.5,127.5 C 71.9725,129.97 71.1392,132.304 69,134.5C 69.2204,132.037 70.0538,129.704 71.5,127.5 Z"/></g>
<g><path style="opacity:1" fill="#e4e6e1" d="M 17.5,121.5 C 18.9311,121.881 19.7645,122.881 20,124.5C 20.995,127.126 21.3283,129.793 21,132.5C 18.9243,129.107 17.7576,125.44 17.5,121.5 Z"/></g>
<g><path style="opacity:1" fill="#d5d8d1" d="M 34.5,118.5 C 35.4379,120.923 34.9379,123.256 33,125.5C 32.3911,122.935 32.8911,120.601 34.5,118.5 Z"/></g>
<g><path style="opacity:1" fill="#e9ece4" d="M 64.5,118.5 C 70.7882,118.789 70.6215,119.789 64,121.5C 63.1667,121.333 62.3333,121.167 61.5,121C 62.5707,120.148 63.5707,119.315 64.5,118.5 Z"/></g>
<g><path style="opacity:1" fill="#e8eae2" d="M 26.5,107.5 C 27.7422,110.74 27.5755,114.074 26,117.5C 25.3412,114.112 25.5078,110.779 26.5,107.5 Z"/></g>
<g><path style="opacity:1" fill="#dcded7" d="M 60.5,107.5 C 61.9207,110.508 61.7541,113.508 60,116.5C 59.3658,113.445 59.5325,110.445 60.5,107.5 Z"/></g>
<g><path style="opacity:1" fill="#e5e8df" d="M 112.5,103.5 C 113.043,103.56 113.376,103.893 113.5,104.5C 112.396,106.389 111.063,108.055 109.5,109.5C 109.167,109.167 108.833,108.833 108.5,108.5C 109.857,106.814 111.19,105.148 112.5,103.5 Z"/></g>
<g><path style="opacity:1" fill="#e4e5df" d="M 73.5,99.5 C 74.5715,102.781 73.7381,105.781 71,108.5C 70.9657,105.325 71.799,102.325 73.5,99.5 Z"/></g>
<g><path style="opacity:1" fill="#d6d9d2" d="M 104.5,96.5 C 105.647,99.289 105.147,101.956 103,104.5C 102.282,101.593 102.782,98.9262 104.5,96.5 Z"/></g>
<g><path style="opacity:1" fill="#8d8e89" d="M 80.5,375.5 C 79.8333,375.5 79.5,375.833 79.5,376.5C 70.0521,362.672 64.2188,347.339 62,330.5C 54.9602,320.891 52.1268,310.224 53.5,298.5C 56.3199,302.797 59.1532,307.13 62,311.5C 63.2043,317.753 63.871,324.086 64,330.5C 66.2595,346.787 71.7595,361.787 80.5,375.5 Z"/></g>
<g><path style="opacity:1" fill="#f2f3ee" d="M 54.5,303.5 C 59.9975,309.484 62.3308,316.484 61.5,324.5C 56.5907,318.439 54.2573,311.439 54.5,303.5 Z"/></g>
<g><path style="opacity:1" fill="#868882" d="M 224.5,456.5 C 223.833,456.5 223.167,456.5 222.5,456.5C 219.851,450.01 215.518,444.843 209.5,441C 197.333,434.209 184.333,430.042 170.5,428.5C 170.297,430.39 170.963,431.89 172.5,433C 175.779,433.973 178.779,435.473 181.5,437.5C 179.316,438.108 177.316,437.441 175.5,435.5C 175.167,435.833 174.833,436.167 174.5,436.5C 176.316,438.817 178.316,440.984 180.5,443C 183.327,443.701 185.994,444.701 188.5,446C 186.793,446.195 185.126,446.195 183.5,446C 189.673,451.751 197.006,454.751 205.5,455C 194.628,456.172 185.628,452.505 178.5,444C 170.5,440.667 162.5,437.333 154.5,434C 145.5,433.667 136.5,433.333 127.5,433C 121.769,432.138 116.436,430.138 111.5,427C 110.112,426.111 110.278,425.611 112,425.5C 116.236,427.914 120.736,429.747 125.5,431C 133.167,431.667 140.833,431.667 148.5,431C 144.5,428.333 140.5,425.667 136.5,423C 125.553,419.693 115.22,415.026 105.5,409C 94.3694,405.767 83.7027,401.433 73.5,396C 71.7068,393.205 69.5402,390.705 67,388.5C 66.4092,387.517 66.7425,386.85 68,386.5C 70.7902,387.094 73.2902,388.261 75.5,390C 80.1667,394 84.8333,398 89.5,402C 93.8957,403.91 98.3957,405.41 103,406.5C 96.5813,398.636 89.748,390.802 82.5,383C 73.285,379.443 64.285,375.443 55.5,371C 52.8333,367.333 50.1667,363.667 47.5,360C 50.4192,359.448 53.0859,360.115 55.5,362C 60.2208,366.721 64.8874,371.387 69.5,376C 73.4005,377.967 77.4005,379.3 81.5,380C 80.1772,379.184 79.5106,378.017 79.5,376.5C 79.5,375.833 79.8333,375.5 80.5,375.5C 81.072,376.973 81.9054,378.307 83,379.5C 83.1667,379.167 83.3333,378.833 83.5,378.5C 78.3089,369.089 77.3089,359.256 80.5,349C 79.733,345.366 78.5664,341.866 77,338.5C 76.8333,336.333 76.6667,334.167 76.5,332C 76.3322,328.619 76.9989,325.453 78.5,322.5C 80.0894,325.421 81.5894,328.421 83,331.5C 83.9678,339.319 83.3012,346.986 81,354.5C 80.3333,358.833 80.3333,363.167 81,367.5C 85.7045,383.06 94.2045,395.394 106.5,404.5C 103.856,400.879 102.023,396.879 101,392.5C 100.667,385.833 100.333,379.167 100,372.5C 98.6667,370.5 97.3333,368.5 96,366.5C 92.5811,351.06 94.5811,350.726 102,365.5C 102.333,374.833 102.667,384.167 103,393.5C 108.09,408.791 118.59,417.624 134.5,420C 129.219,414.611 125.053,408.444 122,401.5C 117.597,385.958 112.597,370.625 107,355.5C 104,353.167 101,350.833 98,348.5C 95.9128,345.327 94.0795,341.994 92.5,338.5C 92.8333,338.167 93.1667,337.833 93.5,337.5C 105.059,345.939 112.059,357.273 114.5,371.5C 114.709,372.922 115.209,374.255 116,375.5C 116.822,367.988 116.655,360.655 115.5,353.5C 114.559,351.228 113.226,349.228 111.5,347.5C 111.5,346.833 111.833,346.5 112.5,346.5C 113.122,347.627 113.955,348.627 115,349.5C 114.085,340.234 110.751,331.901 105,324.5C 97.6531,318.143 93.1531,310.143 91.5,300.5C 92.0016,299.479 92.6683,299.312 93.5,300C 99.2908,306.079 103.124,313.246 105,321.5C 112.053,330.65 116.386,340.983 118,352.5C 118.41,347.491 118.91,342.491 119.5,337.5C 118.111,331.862 117.278,326.195 117,320.5C 117.333,320.167 117.667,319.833 118,319.5C 123.993,325.773 124.993,332.773 121,340.5C 120.68,345.023 120.18,349.523 119.5,354C 121.508,358.518 123.675,363.018 126,367.5C 126.759,372.707 126.592,377.874 125.5,383C 125.026,384.608 124.359,384.774 123.5,383.5C 126.137,374.983 124.97,366.983 120,359.5C 115.102,383.131 120.936,403.631 137.5,421C 144.667,423.241 152.001,424.241 159.5,424C 158.833,423.333 158.167,422.667 157.5,422C 150.335,421.42 144.668,418.253 140.5,412.5C 141.5,412.167 142.5,411.833 143.5,411.5C 151.339,414.157 158.006,418.657 163.5,425C 164.332,425.688 164.998,425.521 165.5,424.5C 162.709,420.418 160.042,416.251 157.5,412C 153.286,409.814 148.953,407.814 144.5,406C 141.939,402.527 138.939,399.527 135.5,397C 138.594,396.348 141.594,396.682 144.5,398C 149.252,400.748 153.419,404.248 157,408.5C 160.833,414.333 164.667,420.167 168.5,426C 182.208,427.677 195.208,431.677 207.5,438C 215.782,441.781 221.448,447.948 224.5,456.5 Z"/></g>
<g><path style="opacity:1" fill="#eff0ea" d="M 141.5,398.5 C 145.34,400.261 148.673,402.761 151.5,406C 146.182,406.172 142.848,403.672 141.5,398.5 Z"/></g>
<g><path style="opacity:1" fill="#eaebe5" d="M 71.5,391.5 C 72.7211,390.535 74.0544,390.702 75.5,392C 76.8333,393.333 78.1667,394.667 79.5,396C 76.2699,395.625 73.6032,394.125 71.5,391.5 Z"/></g>
<g><path style="opacity:1" fill="#d3d6ce" d="M 115.5,353.5 C 116.655,360.655 116.822,367.988 116,375.5C 115.209,374.255 114.709,372.922 114.5,371.5C 115.49,365.69 115.823,359.69 115.5,353.5 Z"/></g>
<g><path style="opacity:1" fill="#e9ebe4" d="M 52.5,362.5 C 56.2663,364.43 59.2663,367.264 61.5,371C 56.8092,370.148 53.8092,367.314 52.5,362.5 Z"/></g>
<g><path style="opacity:1" fill="#e1e2db" d="M 96.5,359.5 C 98.7522,362.092 99.9188,365.092 100,368.5C 97.1666,366.164 95.9999,363.164 96.5,359.5 Z"/></g>
<g><path style="opacity:1" fill="#e1e2db" d="M 97.5,343.5 C 99.6298,345.127 101.63,346.96 103.5,349C 100.474,348.481 98.4735,346.648 97.5,343.5 Z"/></g>
<g><path style="opacity:1" fill="#ecede7" d="M 78.5,328.5 C 80.6943,330.221 81.861,332.555 82,335.5C 82.8184,338.227 82.6517,340.894 81.5,343.5C 80.1936,342.088 79.3603,340.421 79,338.5C 78.5017,335.183 78.335,331.85 78.5,328.5 Z"/></g>
<g><path style="opacity:1" fill="#e8ebe4" d="M 118.5,324.5 C 121.144,326.516 121.977,329.183 121,332.5C 119.659,329.978 118.826,327.311 118.5,324.5 Z"/></g>
<g><path style="opacity:1" fill="#eaede7" d="M 95.5,305.5 C 98.9693,308.738 100.803,312.738 101,317.5C 97.8132,314.126 95.9798,310.126 95.5,305.5 Z"/></g>
<g><path style="opacity:1" fill="#eaece6" d="M 144.5,414.5 C 147.483,414.138 150.15,415.305 152.5,418C 149.275,418.223 146.609,417.057 144.5,414.5 Z"/></g>
<g><path style="opacity:1" fill="#f4f6f2" d="M 143.5,425.5 C 143.735,424.903 144.235,424.57 145,424.5C 150.756,425.826 156.589,426.659 162.5,427C 163.687,428.019 164.687,429.186 165.5,430.5C 161.205,431.661 156.871,431.828 152.5,431C 149.472,429.156 146.472,427.322 143.5,425.5 Z"/></g>
<g><path style="opacity:1" fill="#ebede7" d="M 159.5,434.5 C 166.129,432.024 171.462,433.858 175.5,440C 170.149,438.505 164.816,436.672 159.5,434.5 Z"/></g>
</svg>
